<?xml version="1.0" standalone="no"?>
<!DOCTYPE svg PUBLIC "-//W3C//DTD SVG 20010904//EN"
 "http://www.w3.org/TR/2001/REC-SVG-20010904/DTD/svg10.dtd">
<svg version="1.0" xmlns="http://www.w3.org/2000/svg"
 width="128.000000pt" height="128.000000pt" viewBox="0 0 128.000000 128.000000"
 preserveAspectRatio="xMidYMid meet">

<g transform="translate(0.000000,128.000000) scale(0.100000,-0.100000)"
fill="#000000" stroke="none">
<path d="M558 1269 c-226 -29 -429 -193 -515 -417 -35 -90 -44 -265 -18 -362
59 -225 239 -406 462 -464 78 -21 228 -21 306 0 221 57 404 239 461 461 20 78
21 231 1 308 -80 307 -384 514 -697 474z m52 -91 c60 -18 111 -48 162 -96 46
-43 52 -46 99 -43 90 5 170 -52 219 -156 20 -43 26 -108 12 -129 -13 -20 -51
-35 -109 -42 l-57 -7 -14 -65 c-12 -54 -13 -75 -2 -120 6 -30 17 -86 24 -125
l11 -70 48 -10 c46 -10 67 -26 67 -52 0 -9 -21 -13 -73 -13 -86 0 -90 3 -180
139 -50 75 -54 86 -45 112 21 61 -42 151 -117 165 -29 5 -43 1 -75 -20 -46
-30 -51 -40 -14 -26 51 20 103 12 135 -19 24 -25 29 -37 29 -80 0 -42 -5 -56
-30 -85 -17 -19 -49 -41 -70 -48 -47 -15 -52 -32 -13 -36 134 -13 223 -43 223
-76 0 -23 -51 -27 -190 -18 -70 4 -168 4 -223 -1 -54 -5 -109 -6 -124 -2 -24
6 -25 9 -20 54 7 61 -2 71 -54 57 -71 -19 -113 25 -95 99 3 13 18 27 34 33 30
10 42 40 42 103 0 46 37 140 67 172 55 57 95 70 246 77 153 8 176 17 180 75 2
26 -3 31 -48 48 -27 10 -93 27 -145 38 -52 11 -98 23 -103 28 -5 5 -7 21 -5
37 2 23 10 31 38 40 30 10 35 16 32 38 -6 44 43 52 138 24z"/>
</g>
</svg>
